# xmcd
#
# Track frame offsets: 
#        150
#        13420
#        26854
#        42027
#        61513
#        76335
#        92944
#        108040
#        118867
#        130906
#        146367
#        168969
#        182412
#
# Disc length: 2550 seconds
#
# Revision: 0
# Processed by: cddbd v1.5.2PL0 Copyright (c) Steve Scherf et al.
# Submitted via: ExactAudioCopy v0.95b3
#
DISCID=a109f40d
DTITLE=Paul McCartney  - Memory Almost Full [Limited Edition] - [CD
DTITLE=1)
DYEAR=1900
DGENRE=
TTITLE0=Dance Tonight
TTITLE1=Ever Present Past
TTITLE2=See Your Sunshine
TTITLE3=Only Mama Knows
TTITLE4=You Tell Me
TTITLE5=Mr. Bellamy
TTITLE6=Gratitude
TTITLE7=Vintage Clothes
TTITLE8=That Was Me
TTITLE9=Feet In The Clouds
TTITLE10=House Of Wax
TTITLE11=The End Of The End
TTITLE12=Nod Your Head
EXTD=
EXTT0=
EXTT1=
EXTT2=
EXTT3=
EXTT4=
EXTT5=
EXTT6=
EXTT7=
EXTT8=
EXTT9=
EXTT10=
EXTT11=
EXTT12=
PLAYORDER=
